<svg id="Layer_1" data-name="Layer 1" xmlns="http://www.w3.org/2000/svg" viewBox="0 0 485.43 441.3"><defs><style>.cls-1{fill:#1e1e1e;}</style></defs><path class="cls-1" d="M497.81,461.32,402.87,335.84l-44.08-58.25a4.36,4.36,0,0,0-7,0l-50.21,66.35a4.43,4.43,0,0,0,0,5.33l88.83,117.38a4.38,4.38,0,0,0,3.48,1.74h100.4A4.41,4.41,0,0,0,497.81,461.32Zm-56.08-19H406.84a4.49,4.49,0,0,1-3.59-1.79l-69-91.16a4.56,4.56,0,0,1,0-5.5l17.45-23.05a4.49,4.49,0,0,1,7.18,0L445.32,435A4.55,4.55,0,0,1,441.73,442.3Z" transform="translate(-13.29 -35.35)"/><path class="cls-1" d="M292.92,161.65l58.26,77a4.52,4.52,0,0,0,7.22,0l42-55.51,54.31-71.77a4.56,4.56,0,0,0-3.61-7.32H321.32a4.49,4.49,0,0,0-3.61,1.8l-31.42,41.51a4.6,4.6,0,0,0,0,5.53Zm25.86-14.17,11.83-15.63a4.33,4.33,0,0,1,3.45-1.72h65.13a4.36,4.36,0,0,1,3.44,7l-44.39,58.67a4.32,4.32,0,0,1-6.9,0l-32.56-43A4.4,4.4,0,0,1,318.78,147.48Z" transform="translate(-13.29 -35.35)"/><path class="cls-1" d="M321.88,264.11l.06-.08a13.47,13.47,0,0,0,0-16.06l-66.3-87.62L165,40.57a13.1,13.1,0,0,0-10.43-5.22H17.9a4.63,4.63,0,0,0-3.66,7.44l155.19,205.1a13.47,13.47,0,0,1,0,16.22l-54.27,71.73L14.24,469.21a4.63,4.63,0,0,0,3.66,7.44H154.57A13.14,13.14,0,0,0,165,471.42l90.62-119.77Z" transform="translate(-13.29 -35.35)"/><path class="cls-1" d="M284.27,371a4.57,4.57,0,0,0-7.3,0L227,437a4.59,4.59,0,0,0,0,5.58l17.78,23.5a4.4,4.4,0,0,0,3.5,1.75H348.58a4.47,4.47,0,0,0,3.48-7.21Zm26,79.18H262.38a2.07,2.07,0,0,1-1.66-.84l-8.51-11.24a2.16,2.16,0,0,1,0-2.66l23.87-31.55a2.18,2.18,0,0,1,3.48,0L312,446.73A2.14,2.14,0,0,1,310.3,450.17Z" transform="translate(-13.29 -35.35)"/></svg>